<svg width="93" height="36" viewBox="0 0 93 36" fill="none" xmlns="http://www.w3.org/2000/svg">
<path d="M11.928 22.808H5.256L4.152 26H0.624L6.648 9.224H10.56L16.584 26H13.032L11.928 22.808ZM11.016 20.12L8.592 13.112L6.168 20.12H11.016ZM31.3877 12.704V26H28.0037V24.32C27.5717 24.896 27.0037 25.352 26.2997 25.688C25.6117 26.008 24.8597 26.168 24.0437 26.168C23.0037 26.168 22.0837 25.952 21.2837 25.52C20.4837 25.072 19.8517 24.424 19.3877 23.576C18.9397 22.712 18.7157 21.688 18.7157 20.504V12.704H22.0757V20.024C22.0757 21.08 22.3397 21.896 22.8677 22.472C23.3957 23.032 24.1157 23.312 25.0277 23.312C25.9557 23.312 26.6837 23.032 27.2117 22.472C27.7397 21.896 28.0037 21.08 28.0037 20.024V12.704H31.3877ZM33.8389 19.352C33.8389 17.976 34.1189 16.776 34.6789 15.752C35.2389 14.712 36.0149 13.912 37.0069 13.352C37.9989 12.776 39.1349 12.488 40.4149 12.488C42.0629 12.488 43.4229 12.904 44.4949 13.736C45.5829 14.552 46.3109 15.704 46.6789 17.192H43.0549C42.8629 16.616 42.5349 16.168 42.0709 15.848C41.6229 15.512 41.0629 15.344 40.3909 15.344C39.4309 15.344 38.6709 15.696 38.1109 16.4C37.5509 17.088 37.2709 18.072 37.2709 19.352C37.2709 20.616 37.5509 21.6 38.1109 22.304C38.6709 22.992 39.4309 23.336 40.3909 23.336C41.7509 23.336 42.6389 22.728 43.0549 21.512H46.6789C46.3109 22.952 45.5829 24.096 44.4949 24.944C43.4069 25.792 42.0469 26.216 40.4149 26.216C39.1349 26.216 37.9989 25.936 37.0069 25.376C36.0149 24.8 35.2389 24 34.6789 22.976C34.1189 21.936 33.8389 20.728 33.8389 19.352Z" fill="#EF2424"/>
<path d="M51.512 14.648V22.4C51.512 23.04 51.648 23.496 51.92 23.768C52.192 24.024 52.664 24.152 53.336 24.152H54.944V26H52.976C51.76 26 50.848 25.72 50.24 25.16C49.632 24.6 49.328 23.68 49.328 22.4V14.648H47.624V12.848H49.328V9.536H51.512V12.848H54.944V14.648H51.512ZM58.7182 10.712C58.3022 10.712 57.9502 10.568 57.6622 10.28C57.3742 9.992 57.2302 9.64 57.2302 9.224C57.2302 8.808 57.3742 8.456 57.6622 8.168C57.9502 7.88 58.3022 7.736 58.7182 7.736C59.1182 7.736 59.4542 7.88 59.7262 8.168C60.0142 8.456 60.1582 8.808 60.1582 9.224C60.1582 9.64 60.0142 9.992 59.7262 10.28C59.4542 10.568 59.1182 10.712 58.7182 10.712ZM59.7742 12.848V26H57.5902V12.848H59.7742ZM69.2324 26.216C68.0004 26.216 66.8804 25.936 65.8724 25.376C64.8804 24.816 64.0964 24.024 63.5204 23C62.9604 21.96 62.6804 20.76 62.6804 19.4C62.6804 18.056 62.9684 16.872 63.5444 15.848C64.1364 14.808 64.9364 14.016 65.9444 13.472C66.9524 12.912 68.0804 12.632 69.3284 12.632C70.5764 12.632 71.7044 12.912 72.7124 13.472C73.7204 14.016 74.5124 14.8 75.0884 15.824C75.6804 16.848 75.9764 18.04 75.9764 19.4C75.9764 20.76 75.6724 21.96 75.0644 23C74.4724 24.024 73.6644 24.816 72.6404 25.376C71.6164 25.936 70.4804 26.216 69.2324 26.216ZM69.2324 24.296C70.0164 24.296 70.7524 24.112 71.4404 23.744C72.1284 23.376 72.6804 22.824 73.0964 22.088C73.5284 21.352 73.7444 20.456 73.7444 19.4C73.7444 18.344 73.5364 17.448 73.1204 16.712C72.7044 15.976 72.1604 15.432 71.4884 15.08C70.8164 14.712 70.0884 14.528 69.3044 14.528C68.5044 14.528 67.7684 14.712 67.0964 15.08C66.4404 15.432 65.9124 15.976 65.5124 16.712C65.1124 17.448 64.9124 18.344 64.9124 19.4C64.9124 20.472 65.1044 21.376 65.4884 22.112C65.8884 22.848 66.4164 23.4 67.0724 23.768C67.7284 24.12 68.4484 24.296 69.2324 24.296ZM85.256 12.608C86.856 12.608 88.152 13.096 89.144 14.072C90.136 15.032 90.632 16.424 90.632 18.248V26H88.472V18.56C88.472 17.248 88.144 16.248 87.488 15.56C86.832 14.856 85.936 14.504 84.8 14.504C83.648 14.504 82.728 14.864 82.04 15.584C81.368 16.304 81.032 17.352 81.032 18.728V26H78.848V12.848H81.032V14.72C81.464 14.048 82.048 13.528 82.784 13.16C83.536 12.792 84.36 12.608 85.256 12.608Z" fill="white"/>
</svg>
